<svg width="116" height="43" viewBox="0 0 116 43" fill="none" xmlns="http://www.w3.org/2000/svg">
<path d="M19.6908 17.0087C19.6908 20.7639 16.2827 24.2666 11.1391 24.2666H0.220703V0.504883H8.64616C13.2849 0.504883 16.693 3.40804 16.693 6.68987C16.693 9.15124 14.9574 10.8868 13.8845 10.8868C16.6298 10.8868 19.6908 13.4429 19.6908 17.0087ZM8.42527 5.99563H6.7528V9.71925H8.36216C9.84529 9.71925 10.9498 9.05657 10.9498 7.82588C10.9813 6.65831 9.90841 5.99563 8.42527 5.99563ZM13.1587 16.2513C13.1587 14.8629 12.0858 14.0109 10.1609 14.0109H6.7528V18.5234H10.0977C11.6755 18.5234 13.1587 17.8291 13.1587 16.2513Z" fill="white"/>
<path d="M36.3525 24.2666L29.5049 13.9478V24.2666H22.6888L22.6572 0.504883H32.408C37.9303 0.504883 41.9064 3.97605 41.9064 8.23611C41.9064 11.2024 39.9815 13.6638 37.457 14.7367L44.3362 24.2666H36.3525ZM29.4733 10.9499H32.2503C33.7018 10.9499 35.0272 10.0348 35.0272 8.55167C35.0272 7.06854 33.7018 6.15341 32.2503 6.15341H29.4733V10.9499Z" fill="white"/>
<path d="M46.0405 0C46.0405 7.54189 46.0405 15.0838 46.0405 22.6572C48.3126 20.1959 50.553 17.7345 52.8251 15.2416C56.2962 15.2416 59.7674 15.2416 63.2386 15.2416C57.5269 10.161 51.7837 5.08052 46.0405 0Z" fill="white"/>
<path d="M62.9228 19.7227H57.4951V24.3298H62.9228V19.7227Z" fill="white"/>
<path d="M89.0828 0.346869V24.3926H86.9055L73.715 12.5591V24.1717H66.8989V0.125977H69.1078L82.2352 11.9279V0.346869H89.0828Z" fill="white"/>
<path d="M116 12.2752C116 19.6593 110.667 24.1403 101.958 24.1403H93.5952V0.378582H101.958C110.667 0.347026 116 4.85954 116 12.2752ZM109.184 12.2752C109.184 8.5516 106.375 6.27956 101.8 6.27956H100.254V18.2077H101.863C106.407 18.2077 109.184 15.9673 109.184 12.2752Z" fill="white"/>
<path d="M1.89336 32.4397V35.4375H6.46899V37.1731H1.89336V41.9065H0V30.7041H7.19478V32.4397H1.89336Z" fill="white"/>
<path d="M7.92041 36.3527C7.92041 33.1655 10.7289 30.5464 14.1685 30.5464C17.6081 30.5464 20.4166 33.1655 20.4166 36.3527C20.4166 39.5083 17.6081 42.1275 14.1685 42.1275C10.6973 42.0959 7.92041 39.5083 7.92041 36.3527ZM18.4917 36.3211C18.4917 34.1122 16.5352 32.3135 14.1369 32.3135C11.7387 32.3135 9.81377 34.1122 9.81377 36.3211C9.81377 38.5301 11.7702 40.3288 14.1369 40.3288C16.5037 40.3288 18.4917 38.5301 18.4917 36.3211Z" fill="white"/>
<path d="M21.5845 36.321C21.5845 33.1654 24.4245 30.5146 27.8326 30.5146C29.4104 30.5462 30.8619 31.1458 32.0295 32.2187L30.9251 33.6071C30.073 32.8182 28.9686 32.3133 27.801 32.3133C25.6236 32.3133 23.5094 34.0805 23.5094 36.321C23.5094 38.593 25.6236 40.3286 27.801 40.3286C29.0317 40.3286 30.1046 39.7606 30.9251 39.0032L32.0295 40.4232C30.9882 41.3699 29.6628 42.0957 27.8641 42.0957C24.4561 42.0957 21.5845 39.5081 21.5845 36.321Z" fill="white"/>
<path d="M33.4492 37.6777V30.7354H35.3426V37.6777C35.3426 39.2239 36.5102 40.3599 37.9933 40.3599C39.4764 40.3599 40.6755 39.2239 40.6755 37.6777V30.7354H42.6005V37.6777C42.6005 40.2337 40.6124 42.1271 38.0248 42.1271C35.4688 42.1271 33.4492 40.2653 33.4492 37.6777Z" fill="white"/>
<path d="M44.147 39.9501L45.6617 38.9718C46.1981 39.8554 47.2079 40.3603 48.3755 40.3603C49.7324 40.3603 50.7737 39.7608 50.7737 38.9087C50.7737 37.8674 49.1959 37.2363 47.7759 36.6998C46.3559 36.1318 44.7781 35.4376 44.7781 33.6704C44.7781 31.8402 46.4821 30.5464 48.6595 30.5464C50.3951 30.5464 51.6889 31.3037 52.1622 32.5344L50.7422 33.4495C50.3635 32.6922 49.5431 32.282 48.6595 32.282C47.555 32.282 46.6715 32.9131 46.6715 33.702C46.6715 34.5856 47.7759 34.9011 49.2591 35.4691C51.184 36.258 52.6671 37.11 52.6671 38.8772C52.6671 40.8652 50.8053 42.1275 48.3439 42.1275C46.3559 42.1275 44.8412 41.2439 44.147 39.9501Z" fill="white"/>
<path d="M70.3068 36.6998C70.3068 40.0132 67.6877 42.1275 64.5636 42.1275C61.0609 42.1275 58.2524 39.5399 58.2524 36.3527C58.2524 33.1655 61.0609 30.5464 64.5005 30.5464C66.0152 30.5464 67.7508 31.2406 68.8868 32.2504L67.8455 33.702C66.8988 32.85 65.6366 32.3135 64.469 32.3135C62.2601 32.3135 60.1774 34.0175 60.1774 36.3527C60.1774 38.5616 62.0707 40.3603 64.6268 40.3603C66.7095 40.3603 68.2557 39.1927 68.2557 37.4887V37.4572H64.5005V35.8478H70.2122C70.2753 36.0687 70.3068 36.3843 70.3068 36.6998Z" fill="white"/>
<path d="M78.7322 41.9377L75.482 37.6146H73.9988V41.9377H72.1055V30.7354H75.8606C78.1011 30.7354 79.9629 32.3447 79.9629 34.3327C79.9629 35.7843 78.9531 37.0466 77.5647 37.4568L81.0674 41.9377H78.7322ZM75.8922 36.1314C77.0282 36.1314 77.9749 35.2794 77.9749 34.2696C77.9749 33.2283 76.9967 32.4709 75.8922 32.4709H73.9988V36.1314H75.8922Z" fill="white"/>
<path d="M81.7935 36.3527C81.7935 33.1655 84.6019 30.5464 88.0415 30.5464C91.4812 30.5464 94.2896 33.1655 94.2896 36.3527C94.2896 39.5083 91.4812 42.1275 88.0415 42.1275C84.6019 42.0959 81.7935 39.5083 81.7935 36.3527ZM92.3647 36.3211C92.3647 34.1122 90.4082 32.3135 88.01 32.3135C85.6117 32.3135 83.6868 34.1122 83.6868 36.3211C83.6868 38.5301 85.6433 40.3288 88.01 40.3288C90.4082 40.3288 92.3647 38.5301 92.3647 36.3211Z" fill="white"/>
<path d="M95.9619 37.6777V30.7354H97.8553V37.6777C97.8553 39.2239 99.0228 40.3599 100.506 40.3599C101.989 40.3599 103.188 39.2239 103.188 37.6777V30.7354H105.113V37.6777C105.113 40.2337 103.125 42.1271 100.538 42.1271C97.9499 42.1271 95.9619 40.2653 95.9619 37.6777Z" fill="white"/>
<path d="M107.322 30.7354H111.361C113.697 30.7354 115.622 32.4078 115.622 34.4274C115.622 36.4154 113.697 38.0564 111.361 38.0564H109.216V41.9377H107.322V30.7354ZM113.728 34.3959C113.728 33.3229 112.655 32.4709 111.361 32.4709H109.216V36.2892H111.361C112.655 36.3208 113.728 35.4688 113.728 34.3959Z" fill="white"/>
</svg>
