<svg width="73" height="53" viewBox="0 0 73 53" fill="none" xmlns="http://www.w3.org/2000/svg">
<g clip-path="url(#clip0_66_1099)">
<path d="M38.3441 0.900391C38.3441 17.0448 38.3441 33.2535 38.3441 49.398C42.9225 44.1237 47.4373 38.8494 52.0157 33.5108C59.0104 33.5108 66.0052 33.5108 73 33.5108C61.4268 22.705 49.8536 11.8349 38.3441 0.900391Z" fill="white"/>
<path d="M72.3641 43.1587H61.4268V53.064H72.3641V43.1587Z" fill="white"/>
<path d="M39.2979 36.341C39.2979 44.6383 32.4303 52.2925 22.0653 52.2925H0V0H16.9782C26.3258 0 33.1934 6.36772 33.1934 13.5716C33.1934 18.9745 29.696 22.8337 27.534 22.8337C33.0662 22.8337 39.2979 28.4296 39.2979 36.341ZM16.5967 12.0922H13.2265V20.3252H16.4695C19.4582 20.3252 21.6838 18.8459 21.6838 16.1444C21.6838 13.5716 19.5218 12.0922 16.5967 12.0922ZM26.135 34.6687C26.135 31.6456 23.973 29.7803 20.0941 29.7803L13.2265 29.716V39.6214H19.9669C23.0828 39.6857 26.135 38.0777 26.135 34.6687Z" fill="white"/>
</g>
<defs>
<clipPath id="clip0_66_1099">
<rect width="73" height="53" fill="white"/>
</clipPath>
</defs>
</svg>
